<?xml version="1.0" encoding="UTF-8" standalone="no"?>
<!-- Created with Inkscape (http://www.inkscape.org/) -->

<svg
   xmlns:dc="http://purl.org/dc/elements/1.1/"
   xmlns:cc="http://creativecommons.org/ns#"
   xmlns:rdf="http://www.w3.org/1999/02/22-rdf-syntax-ns#"
   xmlns:svg="http://www.w3.org/2000/svg"
   xmlns="http://www.w3.org/2000/svg"
   xmlns:sodipodi="http://sodipodi.sourceforge.net/DTD/sodipodi-0.dtd"
   xmlns:inkscape="http://www.inkscape.org/namespaces/inkscape"
   width="1052.3622"
   height="744.09448"
   id="svg7936"
   version="1.1"
   inkscape:version="0.48.2 r9819"
   sodipodi:docname="New document 49">
  <defs
     id="defs7938" />
  <sodipodi:namedview
     id="base"
     pagecolor="#ffffff"
     bordercolor="#666666"
     borderopacity="1.0"
     inkscape:pageopacity="0.0"
     inkscape:pageshadow="2"
     inkscape:zoom="0.38839154"
     inkscape:cx="526.18109"
     inkscape:cy="372.04724"
     inkscape:document-units="px"
     inkscape:current-layer="layer1"
     showgrid="false"
     inkscape:window-width="610"
     inkscape:window-height="478"
     inkscape:window-x="75"
     inkscape:window-y="75"
     inkscape:window-maximized="0" />
  <metadata
     id="metadata7941">
    <rdf:RDF>
      <cc:Work
         rdf:about="">
        <dc:format>image/svg+xml</dc:format>
        <dc:type
           rdf:resource="http://purl.org/dc/dcmitype/StillImage" />
        <dc:title></dc:title>
      </cc:Work>
    </rdf:RDF>
  </metadata>
  <g
     inkscape:label="Layer 1"
     inkscape:groupmode="layer"
     id="layer1"
     transform="translate(0,-308.2677)">
    <path
       inkscape:connector-curvature="0"
       style="fill:#fff8a3;fill-opacity:1;stroke:none"
       d="m 137.89634,406.98749 0,533.96875 772.875,0 0,-533.96875 -772.875,0 z m 126.3125,54.6875 521.0938,0 0,11.53125 0.2812,0 c 26.3817,0 47.7569,21.33346 47.875,47.6875 l 14,0 0,298.1875 -14.4687,0 c 6e-4,0.0921 0,0.18905 0,0.28125 0,26.38176 -21.3335,47.78816 -47.6875,47.90625 l 0,14.65625 -521.125,0 0,-14.65625 c -26.354,-0.11809 -47.6875,-21.52449 -47.6875,-47.90625 0,-0.0922 -6e-4,-0.18915 0,-0.28125 l -13.8438,0 0,-298.1875 13.375,0 c 0.1181,-26.35404 21.5246,-47.6875 47.9063,-47.6875 l 0.2812,0 0,-11.53125 z"
       id="rect6468-5" />
  </g>
</svg>
